<?xml version="1.0" encoding="UTF-8" standalone="no"?>
<!DOCTYPE svg PUBLIC "-//W3C//DTD SVG 1.1//EN"
 "http://www.w3.org/Graphics/SVG/1.1/DTD/svg11.dtd">
<!-- Generated by graphviz version 2.43.0 (0)
 -->
<!-- Title: lectores Pages: 1 -->
<svg width="753pt" height="278pt"
 viewBox="0.00 0.00 753.20 278.20" xmlns="http://www.w3.org/2000/svg" xmlns:xlink="http://www.w3.org/1999/xlink">
<g id="graph0" class="graph" transform="scale(1 1) rotate(0) translate(21.6 256.6)">
<title>lectores</title>
<polygon fill="white" stroke="transparent" points="-21.6,21.6 -21.6,-256.6 731.6,-256.6 731.6,21.6 -21.6,21.6"/>
<text text-anchor="middle" x="355" y="-218.2" font-family="Helvetica,sans-Serif" font-size="16.00" fill="#2c2825">Lectores y valoraciones</text>
<!-- LibraryUser -->
<g id="node1" class="node">
<title>LibraryUser</title>
<polygon fill="#e8f3e9" stroke="transparent" points="0.5,-181.5 0.5,-208.5 153.5,-208.5 153.5,-181.5 0.5,-181.5"/>
<polygon fill="none" stroke="#6e6459" points="0.5,-181.5 0.5,-208.5 153.5,-208.5 153.5,-181.5 0.5,-181.5"/>
<text text-anchor="start" x="37.5" y="-192.9" font-family="Helvetica,sans-Serif" font-weight="bold" font-size="12.00" fill="#2c2825">LibraryUser</text>
<polygon fill="none" stroke="#6e6459" points="0.5,-119.5 0.5,-181.5 153.5,-181.5 153.5,-119.5 0.5,-119.5"/>
<text text-anchor="start" x="7.5" y="-165.9" font-family="Helvetica,sans-Serif" text-decoration="underline" font-size="12.00" fill="#2c2825">id</text>
<text text-anchor="start" x="18.5" y="-165.9" font-family="Helvetica,sans-Serif" font-size="12.00" fill="#6e6459">: bigint</text>
<text text-anchor="start" x="7.5" y="-153.9" font-family="Helvetica,sans-Serif" font-size="12.00" fill="#2c2825">user_id</text>
<text text-anchor="start" x="50.5" y="-153.9" font-family="Helvetica,sans-Serif" font-size="12.00" fill="#6e6459">: integer (único)</text>
<text text-anchor="start" x="7.5" y="-141.9" font-family="Helvetica,sans-Serif" font-size="12.00" fill="#2c2825">birth_date</text>
<text text-anchor="start" x="68.5" y="-141.9" font-family="Helvetica,sans-Serif" font-size="12.00" fill="#6e6459">: date ?</text>
<text text-anchor="start" x="7.5" y="-129.9" font-family="Helvetica,sans-Serif" font-size="12.00" fill="#2c2825">comment</text>
<text text-anchor="start" x="65.5" y="-129.9" font-family="Helvetica,sans-Serif" font-size="12.00" fill="#6e6459">: text ?</text>
</g>
<!-- ratingpunto -->
<g id="node4" class="node">
<title>ratingpunto</title>
<ellipse fill="#6e6459" stroke="#6e6459" cx="336.5" cy="-164.5" rx="1.8" ry="1.8"/>
</g>
<!-- LibraryUser&#45;&gt;ratingpunto -->
<g id="edge1" class="edge">
<title>LibraryUser&#45;&gt;ratingpunto</title>
<path fill="none" stroke="#6e6459" stroke-width="1.3" d="M153.17,-164.5C224.54,-164.5 322.34,-164.5 334.29,-164.5"/>
<text text-anchor="middle" x="167.67" y="-154.64" font-family="Helvetica,sans-Serif" font-size="12.00" fill="#2c2825">*</text>
</g>
<!-- Copy -->
<g id="node2" class="node">
<title>Copy</title>
<polygon fill="#e7eef8" stroke="transparent" points="554,-175.5 554,-202.5 710,-202.5 710,-175.5 554,-175.5"/>
<polygon fill="none" stroke="#6e6459" points="554,-175.5 554,-202.5 710,-202.5 710,-175.5 554,-175.5"/>
<text text-anchor="start" x="615" y="-186.9" font-family="Helvetica,sans-Serif" font-weight="bold" font-size="12.00" fill="#2c2825">Copy</text>
<polygon fill="none" stroke="#6e6459" points="554,-125.5 554,-175.5 710,-175.5 710,-125.5 554,-125.5"/>
<text text-anchor="start" x="561" y="-159.9" font-family="Helvetica,sans-Serif" text-decoration="underline" font-size="12.00" fill="#2c2825">id</text>
<text text-anchor="start" x="572" y="-159.9" font-family="Helvetica,sans-Serif" font-size="12.00" fill="#6e6459">: bigint</text>
<text text-anchor="start" x="561" y="-147.9" font-family="Helvetica,sans-Serif" font-size="12.00" fill="#2c2825">copy_id</text>
<text text-anchor="start" x="607" y="-147.9" font-family="Helvetica,sans-Serif" font-size="12.00" fill="#6e6459">: integer (único)</text>
<text text-anchor="start" x="561" y="-135.9" font-family="Helvetica,sans-Serif" font-size="12.00" fill="#2c2825">available</text>
<text text-anchor="start" x="615" y="-135.9" font-family="Helvetica,sans-Serif" font-size="12.00" fill="#6e6459">: boolean</text>
</g>
<!-- Rating -->
<g id="node3" class="node">
<title>Rating</title>
<polygon fill="#e8f3e9" stroke="transparent" points="256.5,-49.5 256.5,-76.5 417.5,-76.5 417.5,-49.5 256.5,-49.5"/>
<polygon fill="none" stroke="#6e6459" points="256.5,-49.5 256.5,-76.5 417.5,-76.5 417.5,-49.5 256.5,-49.5"/>
<text text-anchor="start" x="315" y="-60.9" font-family="Helvetica,sans-Serif" font-weight="bold" font-size="12.00" fill="#2c2825">Rating</text>
<polygon fill="none" stroke="#6e6459" points="256.5,0.5 256.5,-49.5 417.5,-49.5 417.5,0.5 256.5,0.5"/>
<text text-anchor="start" x="263.5" y="-33.9" font-family="Helvetica,sans-Serif" text-decoration="underline" font-size="12.00" fill="#2c2825">id</text>
<text text-anchor="start" x="274.5" y="-33.9" font-family="Helvetica,sans-Serif" font-size="12.00" fill="#6e6459">: bigint</text>
<text text-anchor="start" x="263.5" y="-21.9" font-family="Helvetica,sans-Serif" font-size="12.00" fill="#2c2825">rating</text>
<text text-anchor="start" x="299.5" y="-21.9" font-family="Helvetica,sans-Serif" font-size="12.00" fill="#6e6459">: integer (1&#45;5)</text>
<text text-anchor="start" x="263.5" y="-9.9" font-family="Helvetica,sans-Serif" font-size="12.00" fill="#2c2825">created_at</text>
<text text-anchor="start" x="327.5" y="-9.9" font-family="Helvetica,sans-Serif" font-size="12.00" fill="#6e6459">: timestamptz</text>
</g>
<!-- ratingpunto&#45;&gt;Copy -->
<g id="edge2" class="edge">
<title>ratingpunto&#45;&gt;Copy</title>
<path fill="none" stroke="#6e6459" stroke-width="1.3" d="M338.34,-164.5C349.59,-164.5 471.05,-164.5 553.92,-164.5"/>
<text text-anchor="middle" x="485.5" y="-167.7" font-family="Helvetica,sans-Serif" font-size="11.00" fill="#2c2825">valora</text>
<text text-anchor="middle" x="539.42" y="-168.16" font-family="Helvetica,sans-Serif" font-size="12.00" fill="#2c2825">*</text>
</g>
<!-- ratingpunto&#45;&gt;Rating -->
<g id="edge3" class="edge">
<title>ratingpunto&#45;&gt;Rating</title>
<path fill="none" stroke="#6e6459" stroke-width="1.3" stroke-dasharray="5,2" d="M336.5,-162.46C336.5,-134.1 336.5,-105.74 336.5,-77.38"/>
</g>
</g>
</svg>
